#N canvas 0 25 1440 847 12;
#X obj 148 760 dac~, f 11;
#X obj 149 520 spacestationstereo;
#X obj 148 706 clip~ -0.9 0.9, f 8;
#X obj 222 706 clip~ -0.9 0.9, f 8;
#X obj 14 38 loadbang;
#X msg 14 63 \; pd dsp 1;
#N canvas 0 25 1440 847 data_recive 0;
#X obj 90 96 fudiparse;
#X obj 90 121 list;
#X obj 90 765 outlet;
#X floatatom 90 732 5 0 0 0 - - - 0;
#X obj 90 155 unpack f f f f f f f f, f 130;
#X floatatom 90 336 6 0 0 1 x_value - - 0;
#X obj 360 765 outlet;
#X floatatom 360 732 5 0 0 0 - - - 0;
#X floatatom 359 335 6 0 0 1 y_value - - 0;
#X obj 359 363 change;
#X floatatom 651 335 6 0 0 2 \ x_value - - 0;
#X floatatom 787 334 6 0 0 2 \ y_value - - 0;
#X obj 787 362 change;
#X floatatom 855 334 6 0 0 2 \ x_value - - 0;
#X floatatom 991 333 6 0 0 2 \ y_value - - 0;
#X obj 991 361 change;
#X floatatom 1061 333 6 0 0 2 \ x_value - - 0;
#X floatatom 1197 332 6 0 0 2 \ y_value - - 0;
#X obj 1197 360 change;
#X obj 360 479 expr if ($f1 >= 0 && $f1 < 0.25 \, 1 \, if ($f1 >= 0.25 && $f1 < 0.5 \, 2 \, if ($f1 >= 0.5 && $f1 < 0.75 \, 3 \, 4))), f 34;
#X obj 1363 766 outlet;
#X text 125 441 assigne x_value to key in scale;
#X text 379 461 assigne the octave;
#X obj 651 766 outlet;
#X floatatom 651 733 5 0 0 0 - - - 0;
#X obj 787 766 outlet;
#X floatatom 787 733 5 0 0 0 - - - 0;
#X obj 787 479 expr if ($f1 >= 0 && $f1 < 0.25 \, 1 \, if ($f1 >= 0.25 && $f1 < 0.5 \, 2 \, if ($f1 >= 0.5 && $f1 < 0.75 \, 3 \, 4))), f 7;
#X obj 856 766 outlet;
#X floatatom 856 733 5 0 0 0 - - - 0;
#X obj 992 766 outlet;
#X floatatom 992 733 5 0 0 0 - - - 0;
#X obj 992 479 expr if ($f1 >= 0 && $f1 < 0.25 \, 1 \, if ($f1 >= 0.25 && $f1 < 0.5 \, 2 \, if ($f1 >= 0.5 && $f1 < 0.75 \, 3 \, 4))), f 7;
#X obj 1063 766 outlet;
#X floatatom 1063 733 5 0 0 0 - - - 0;
#X obj 1199 766 outlet;
#X floatatom 1199 733 5 0 0 0 - - - 0;
#X obj 1199 479 expr if ($f1 >= 0 && $f1 < 0.25 \, 1 \, if ($f1 >= 0.25 && $f1 < 0.5 \, 2 \, if ($f1 >= 0.5 && $f1 < 0.75 \, 3 \, 4))), f 7;
#X text 1137 797 summ all input to check to go to sleep;
#X obj 1367 234 bng 19 250 50 0 empty empty empty 0 -10 0 12 #fcfcfc #000000 #000000;
#X obj 90 71 netreceive -u -b 3002;
#X obj 90 478 expr if ($f1 >= 0 && $f1 < 0.125 \, 1 \, if ($f1 >= 0.125 && $f1 < 0.25 \, 2 \, if ($f1 >= 0.25 && $f1 < 0.375 \, 3 \, if ($f1 >= 0.375 && $f1 < 0.5 \, 4 \, if ($f1 >= 0.5 && $f1 < 0.625 \, 5 \, if ($f1 >= 0.625 && $f1 < 0.75 \, 6 \, if ($f1 >= 0.75 && $f1 < 0.875 \, 7 \, if ($f1 >= 0.875 && $f1 < 1 \, 8 \, 10)))))))), f 35;
#N canvas 0 25 1440 847 change_retrigger 0;
#X obj 51 95 change;
#X msg 234 176 10;
#X obj 104 118 bng 19 250 50 0 empty empty empty 0 -10 0 12 #fcfcfc #000000 #000000;
#X obj 104 142 delay 120;
#X obj 51 21 inlet;
#X floatatom 51 68 5 0 0 0 - - - 0;
#X floatatom 108 39 5 0 0 0 - - - 0;
#X obj 51 208 outlet;
#X connect 0 0 2 0;
#X connect 0 0 7 0;
#X connect 1 0 6 0;
#X connect 2 0 3 0;
#X connect 3 0 1 0;
#X connect 4 0 5 0;
#X connect 5 0 0 0;
#X connect 6 0 5 0;
#X restore 1259 65 pd change_retrigger;
#X floatatom 90 387 5 0 0 0 - - - 0;
#X obj 651 479 expr if ($f1 >= 0 && $f1 < 0.125 \, 1 \, if ($f1 >= 0.125 && $f1 < 0.25 \, 2 \, if ($f1 >= 0.25 && $f1 < 0.375 \, 3 \, if ($f1 >= 0.375 && $f1 < 0.5 \, 4 \, if ($f1 >= 0.5 && $f1 < 0.625 \, 5 \, if ($f1 >= 0.625 && $f1 < 0.75 \, 6 \, if ($f1 >= 0.75 && $f1 < 0.875 \, 7 \, if ($f1 >= 0.875 && $f1 < 1 \, 8 \, 10)))))))), f 18;
#X obj 856 479 expr if ($f1 >= 0 && $f1 < 0.125 \, 1 \, if ($f1 >= 0.125 && $f1 < 0.25 \, 2 \, if ($f1 >= 0.25 && $f1 < 0.375 \, 3 \, if ($f1 >= 0.375 && $f1 < 0.5 \, 4 \, if ($f1 >= 0.5 && $f1 < 0.625 \, 5 \, if ($f1 >= 0.625 && $f1 < 0.75 \, 6 \, if ($f1 >= 0.75 && $f1 < 0.875 \, 7 \, if ($f1 >= 0.875 && $f1 < 1 \, 8 \, 10)))))))), f 18;
#X obj 1063 479 expr if ($f1 >= 0 && $f1 < 0.125 \, 1 \, if ($f1 >= 0.125 && $f1 < 0.25 \, 2 \, if ($f1 >= 0.25 && $f1 < 0.375 \, 3 \, if ($f1 >= 0.375 && $f1 < 0.5 \, 4 \, if ($f1 >= 0.5 && $f1 < 0.625 \, 5 \, if ($f1 >= 0.625 && $f1 < 0.75 \, 6 \, if ($f1 >= 0.75 && $f1 < 0.875 \, 7 \, if ($f1 >= 0.875 && $f1 < 1 \, 8 \, 10)))))))), f 18;
#X floatatom 651 387 5 0 0 0 - - - 0;
#X floatatom 855 389 5 0 0 0 - - - 0;
#X floatatom 1062 388 5 0 0 0 - - - 0;
#X obj 359 302 r demo_y;
#X obj 101 302 r demo_x;
#X obj 1055 152 r demo_x;
#X text 125 458 checking for 8 ranges;
#X obj 1024 21 random 10;
#X floatatom 1024 45 5 0 0 0 - - - 0;
#X obj 1024 68 * 0.1;
#X floatatom 1024 92 5 0 0 0 - - - 0;
#X floatatom 1125 45 5 0 0 0 - - - 0;
#X obj 1125 68 * 0.1;
#X floatatom 1125 92 5 0 0 0 - - - 0;
#X obj 1073 -19 bng 19 250 50 0 empty empty empty 0 -10 0 12 #fcfcfc #000000 #000000;
#X obj 1125 21 random 4;
#X obj 1024 117 s demo_x;
#X obj 1125 117 s demo_y;
#X text 1104 -20 <- generates random xy coordiantes for testing;
#X floatatom 359 387 5 0 0 0 - - - 0;
#X obj 90 362 change;
#X obj 651 362 change;
#X obj 855 363 change;
#X obj 1062 362 change;
#X connect 0 0 1 0;
#X connect 1 0 4 0;
#X connect 3 0 2 0;
#X connect 4 0 5 0;
#X connect 4 0 39 0;
#X connect 4 1 8 0;
#X connect 4 1 39 0;
#X connect 4 2 10 0;
#X connect 4 2 39 0;
#X connect 4 3 11 0;
#X connect 4 3 39 0;
#X connect 4 4 13 0;
#X connect 4 4 39 0;
#X connect 4 5 14 0;
#X connect 4 5 39 0;
#X connect 4 6 16 0;
#X connect 4 6 39 0;
#X connect 4 7 17 0;
#X connect 4 7 39 0;
#X connect 5 0 67 0;
#X connect 7 0 6 0;
#X connect 8 0 9 0;
#X connect 9 0 66 0;
#X connect 10 0 68 0;
#X connect 11 0 12 0;
#X connect 12 0 27 0;
#X connect 13 0 69 0;
#X connect 14 0 15 0;
#X connect 15 0 32 0;
#X connect 16 0 70 0;
#X connect 17 0 18 0;
#X connect 18 0 37 0;
#X connect 19 0 7 0;
#X connect 24 0 23 0;
#X connect 26 0 25 0;
#X connect 27 0 26 0;
#X connect 29 0 28 0;
#X connect 31 0 30 0;
#X connect 32 0 31 0;
#X connect 34 0 33 0;
#X connect 36 0 35 0;
#X connect 37 0 36 0;
#X connect 39 0 20 0;
#X connect 40 0 0 0;
#X connect 41 0 3 0;
#X connect 43 0 41 0;
#X connect 44 0 24 0;
#X connect 45 0 29 0;
#X connect 46 0 34 0;
#X connect 47 0 44 0;
#X connect 48 0 45 0;
#X connect 49 0 46 0;
#X connect 50 0 8 0;
#X connect 51 0 5 0;
#X connect 52 0 39 0;
#X connect 54 0 55 0;
#X connect 55 0 56 0;
#X connect 56 0 57 0;
#X connect 57 0 63 0;
#X connect 58 0 59 0;
#X connect 59 0 60 0;
#X connect 60 0 64 0;
#X connect 61 0 54 0;
#X connect 61 0 62 0;
#X connect 62 0 58 0;
#X connect 66 0 19 0;
#X connect 67 0 43 0;
#X connect 68 0 47 0;
#X connect 69 0 48 0;
#X connect 70 0 49 0;
#X coords 0 847 1 846 85 60 0;
#X restore 276 196 pd data_recive;
#X f 16;
#N canvas 0 25 1440 847 sequener 0;
#X obj 373 253 loadbang;
#X msg 287 333 60000;
#X obj 287 278 loadbang;
#X msg 373 299 60;
#X floatatom 373 323 5 0 0 0 - - - 0;
#X text 361 234 BPM;
#X obj 355 349 bng 19 250 50 0 empty empty empty 0 -10 0 12 #fcfcfc #000000 #000000;
#X obj 355 381 /;
#X floatatom 355 405 5 0 0 0 - - - 0;
#X obj 355 428 s 4th_time;
#X obj 657 257 r ON;
#X obj 657 281 sel 0;
#X obj 657 308 bng 19 250 50 0 empty empty empty 0 -10 0 12 #fcfcfc #000000 #000000;
#X obj 591 257 loadbang;
#X msg 657 332 -1;
#X obj 717 303 r whole_note;
#X obj 717 330 bng 19 250 50 0 empty empty empty 0 -10 0 12 #fcfcfc #000000 #000000;
#X obj 717 354 int 1;
#X obj 785 381 + 1;
#X floatatom 717 378 5 0 0 0 - - - 0;
#X obj 717 401 % 2;
#X obj 717 425 + 1;
#X obj 717 449 sel 1;
#X obj 717 473 bng 19 250 50 0 empty empty empty 0 -10 0 12 #fcfcfc #000000 #000000;
#X obj 717 495 tgl 19 0 empty empty empty 0 -10 0 12 #fcfcfc #000000 #000000 0 1;
#X obj 717 519 s chord;
#X obj 651 375 r ON;
#X obj 651 399 sel 0;
#X msg 651 423 1;
#X obj 578 398 loadbang;
#X text 613 230 clock sequencer;
#X obj 875 281 r ON;
#X obj 924 284 r 4th_time;
#X floatatom 937 331 5 0 0 0 - - - 0;
#X obj 924 355 metro;
#X obj 924 380 bng 19 250 50 0 empty empty empty 0 -10 0 12 #fcfcfc #000000 #000000;
#X obj 924 404 s whole_note;
#X obj 972 354 s whole_time;
#X obj 1106 278 r ON;
#X obj 1155 281 r 4th_time;
#X floatatom 1174 329 5 0 0 0 - - - 0;
#X obj 1155 352 metro;
#X obj 1155 377 bng 19 250 50 0 empty empty empty 0 -10 0 12 #fcfcfc #000000 #000000;
#X obj 924 308 * 4;
#X obj 1155 305 * 1;
#X obj 1155 401 s 4th_note;
#X text 995 232 clock multiplication;
#X obj 287 306 delay 10;
#X connect 0 0 3 0;
#X connect 1 0 7 0;
#X connect 2 0 47 0;
#X connect 3 0 4 0;
#X connect 4 0 6 0;
#X connect 4 0 7 1;
#X connect 6 0 7 0;
#X connect 7 0 8 0;
#X connect 8 0 9 0;
#X connect 10 0 11 0;
#X connect 11 0 12 0;
#X connect 12 0 14 0;
#X connect 13 0 12 0;
#X connect 14 0 17 0;
#X connect 15 0 16 0;
#X connect 16 0 17 0;
#X connect 17 0 18 0;
#X connect 17 0 19 0;
#X connect 18 0 17 1;
#X connect 19 0 20 0;
#X connect 20 0 21 0;
#X connect 21 0 22 0;
#X connect 22 0 23 0;
#X connect 23 0 24 0;
#X connect 24 0 25 0;
#X connect 26 0 27 0;
#X connect 27 0 28 0;
#X connect 28 0 24 0;
#X connect 29 0 28 0;
#X connect 31 0 34 0;
#X connect 32 0 43 0;
#X connect 33 0 37 0;
#X connect 33 0 34 1;
#X connect 34 0 35 0;
#X connect 35 0 36 0;
#X connect 38 0 41 0;
#X connect 39 0 44 0;
#X connect 40 0 41 1;
#X connect 41 0 42 0;
#X connect 42 0 45 0;
#X connect 43 0 33 0;
#X connect 44 0 40 0;
#X connect 47 0 1 0;
#X restore 13 118 pd sequener;
#N canvas 0 28 1440 872 wait_to_sleep 0;
#X obj 94 325 tgl 19 1 empty empty empty 0 -10 0 12 #fcfcfc #000000 #000000 1 1;
#X obj 94 350 s ON;
#X msg 137 192 0;
#X obj 126 144 bng 19 250 50 0 empty empty empty 0 -10 0 12 #fcfcfc #000000 #000000;
#X obj 312 128 hsl 162 19 0 127 0 0 empty empty empty -2 -10 0 12 #fcfcfc #000000 #000000 0 1;
#X obj 126 168 delay 5000;
#X floatatom 92 215 5 0 0 0 - - - 0;
#X msg 92 191 1;
#X obj 92 240 change;
#X obj 125 99 inlet;
#X obj 92 284 outlet;
#X text 125 61 summd input to check to go to sleep;
#X obj 167 285 outlet;
#X connect 0 0 1 0;
#X connect 2 0 6 0;
#X connect 3 0 7 0;
#X connect 3 0 5 0;
#X connect 4 0 3 0;
#X connect 5 0 2 0;
#X connect 5 0 12 0;
#X connect 6 0 8 0;
#X connect 7 0 6 0;
#X connect 8 0 10 0;
#X connect 9 0 3 0;
#X restore 384 311 pd wait_to_sleep;
#X obj 384 342 tgl 19 1 empty empty empty 0 -10 0 12 #fcfcfc #000000 #000000 0 1;
#X obj 384 367 s ON;
#X obj 849 275 random 10;
#X floatatom 849 299 5 0 0 0 - - - 0;
#X obj 849 322 * 0.1;
#X floatatom 849 346 5 0 0 0 - - - 0;
#X floatatom 950 299 5 0 0 0 - - - 0;
#X obj 950 322 * 0.1;
#X floatatom 950 346 5 0 0 0 - - - 0;
#X obj 898 199 bng 19 250 50 0 empty empty empty 0 -10 0 12 #ffffff #000000 #000000;
#X obj 950 275 random 4;
#X obj 849 371 s demo_x;
#X obj 950 371 s demo_y;
#X text 121 133 base and drone syntheziser;
#X text 929 198 <- generates random xy coordiantes for testing;
#X text 395 196 <- resives the messages send from rPI;
#X text 409 216 and conversts them into usible data;
#X text 505 331 after no touch detectded for 5 sec.;
#X text 398 444 <- delay to create movement of the bell sound;
#X text 294 519 <- reverb to give all sounds some airyness;
#X text 239 595 <- fades out the volume after sleep is triggerd;
#N canvas 0 28 1440 872 base_synth~ 0;
#X obj 48 15 r chord;
#X obj 48 39 tgl 19 0 empty empty empty 0 -10 0 12 #fcfcfc #000000 #000000 0 1;
#X obj 48 63 sel 0;
#X obj 48 90 bng 19 250 50 0 empty empty empty 0 -10 0 12 #fcfcfc #000000 #000000;
#X obj 80 91 bng 19 250 50 0 empty empty empty 0 -10 0 12 #fcfcfc #000000 #000000;
#X msg 46 139 130.81;
#X msg 100 139 87.31;
#X text 70 115 c;
#X text 125 115 f;
#X obj 46 179 phasor~;
#X obj 46 203 lop~ 100;
#X obj 46 245 *~;
#X obj 175 112 r ON;
#X obj 175 136 sel 1;
#X obj 175 162 bng 19 250 50 0 empty empty empty 0 -10 0 12 #fcfcfc #000000 #000000;
#X msg 175 186 1 500;
#X obj 260 53 r whole_time;
#X obj 260 77 * 2;
#X floatatom 260 101 5 0 0 0 - - - 0;
#X obj 260 124 - 100;
#X obj 228 157 delay;
#X obj 324 108 r ON;
#X obj 324 132 sel 0;
#X obj 175 220 line~;
#X obj 46 274 *~ 0.4;
#X msg 228 187 0 100;
#X obj 45 311 outlet~;
#X obj 324 157 delay 5000;
#X connect 0 0 1 0;
#X connect 1 0 2 0;
#X connect 2 0 3 0;
#X connect 2 1 4 0;
#X connect 3 0 5 0;
#X connect 4 0 6 0;
#X connect 5 0 9 0;
#X connect 6 0 9 0;
#X connect 9 0 10 0;
#X connect 10 0 11 0;
#X connect 11 0 24 0;
#X connect 12 0 13 0;
#X connect 13 0 14 0;
#X connect 14 0 15 0;
#X connect 15 0 23 0;
#X connect 16 0 17 0;
#X connect 17 0 18 0;
#X connect 18 0 19 0;
#X connect 19 0 20 1;
#X connect 20 0 25 0;
#X connect 21 0 22 0;
#X connect 22 0 27 0;
#X connect 23 0 11 1;
#X connect 24 0 26 0;
#X connect 25 0 23 0;
#X connect 27 0 25 0;
#X restore 31 272 pd base_synth~;
#N canvas 568 265 450 300 drone_synth~ 0;
#X obj 17 18 r whole_note;
#X obj 17 43 bng 19 250 50 0 empty empty empty 0 -10 0 12 #fcfcfc #000000 #000000;
#N canvas 0 25 1440 847 chord_scale 0;
#X obj 187 183 inlet;
#X obj 225 566 outlet;
#X obj 187 218 bng 19 250 50 0 empty empty empty 0 -10 0 12 #fcfcfc #000000 #000000;
#X obj 187 257 random 8;
#X obj 107 315 sel 0;
#X msg 107 339 60;
#X obj 159 314 sel 1;
#X msg 159 338 62;
#X obj 207 315 sel 2;
#X msg 207 339 64;
#X obj 251 316 sel 3;
#X obj 299 316 sel 4;
#X obj 346 316 sel 5;
#X obj 396 315 sel 6;
#X obj 445 314 sel 7;
#X msg 251 340 65;
#X msg 299 340 67;
#X msg 396 339 71;
#X msg 445 338 72;
#X msg 346 340 69;
#X obj 219 433 mtof;
#X connect 0 0 2 0;
#X connect 2 0 3 0;
#X connect 3 0 4 0;
#X connect 3 0 6 0;
#X connect 3 0 8 0;
#X connect 3 0 10 0;
#X connect 3 0 11 0;
#X connect 3 0 12 0;
#X connect 3 0 13 0;
#X connect 3 0 14 0;
#X connect 4 0 5 0;
#X connect 5 0 20 0;
#X connect 6 0 7 0;
#X connect 7 0 20 0;
#X connect 8 0 9 0;
#X connect 9 0 20 0;
#X connect 10 0 15 0;
#X connect 11 0 16 0;
#X connect 12 0 19 0;
#X connect 13 0 17 0;
#X connect 14 0 18 0;
#X connect 15 0 20 0;
#X connect 16 0 20 0;
#X connect 17 0 20 0;
#X connect 18 0 20 0;
#X connect 19 0 20 0;
#X connect 20 0 1 0;
#X restore 17 73 pd chord_scale;
#X floatatom 18 133 5 0 0 0 - - - 0;
#X obj 91 117 * 1.001;
#X obj 18 164 phasor~;
#X obj 91 164 phasor~;
#X obj 18 230 *~;
#X floatatom 91 141 5 0 0 0 - - - 0;
#X obj 184 47 bng 19 250 50 0 empty empty empty 0 -10 0 12 #fcfcfc #000000 #000000;
#X obj 264 45 r whole_time;
#X floatatom 264 69 5 0 0 0 - - - 0;
#X obj 264 92 - 500;
#X obj 330 82 r ON;
#X obj 232 124 delay;
#X obj 330 106 sel 0;
#X msg 184 171 1 500;
#X obj 18 206 lop~ 100;
#X obj 209 218 line~;
#X obj 18 254 *~ 0.2;
#X msg 276 171 0 500;
#X obj 18 278 outlet~;
#X obj 330 132 delay 5000;
#X connect 0 0 1 0;
#X connect 0 0 9 0;
#X connect 1 0 2 0;
#X connect 2 0 3 0;
#X connect 2 0 4 0;
#X connect 3 0 5 0;
#X connect 4 0 8 0;
#X connect 5 0 17 0;
#X connect 6 0 17 0;
#X connect 7 0 19 0;
#X connect 8 0 6 0;
#X connect 9 0 14 0;
#X connect 9 0 16 0;
#X connect 10 0 11 0;
#X connect 11 0 12 0;
#X connect 12 0 14 1;
#X connect 13 0 15 0;
#X connect 14 0 20 0;
#X connect 15 0 22 0;
#X connect 16 0 18 0;
#X connect 17 0 7 0;
#X connect 18 0 7 1;
#X connect 19 0 21 0;
#X connect 20 0 18 0;
#X connect 22 0 20 0;
#X restore 150 273 pd drone_synth~;
#N canvas 0 28 1440 872 bell_synth~ 0;
#X obj 79 466 *~;
#X obj 78 350 vline~;
#X obj 79 392 *~;
#X msg 117 317 0 0;
#X msg 78 317 1 1;
#X obj 21 290 delay 2;
#X msg 19 318 0 1000;
#N canvas 0 28 1440 872 chord_scale 0;
#X obj 372 185 inlet;
#X obj 354 706 outlet;
#X msg 209 357 60;
#X msg 261 357 62;
#X msg 309 357 64;
#X msg 353 357 65;
#X msg 401 357 67;
#X msg 498 357 71;
#X msg 547 357 72;
#X msg 448 357 69;
#X obj 353 520 mtof;
#X obj 209 303 sel 1;
#X obj 261 302 sel 2;
#X obj 309 303 sel 3;
#X obj 353 304 sel 4;
#X obj 401 304 sel 5;
#X obj 448 304 sel 6;
#X obj 498 303 sel 7;
#X obj 547 302 sel 8;
#X obj 354 629 *;
#X obj 733 209 inlet;
#X text 417 183 <- x coordinate;
#X text 783 208 <- y coordinate;
#X text 838 358 <- multiplier to shift octave;
#X text 839 383 (2 x frequenzy = one octave up);
#X text 82 356 MIDI pitches ->;
#X floatatom 353 553 5 0 0 0 - - - 0;
#X floatatom 354 663 5 0 0 0 - - - 0;
#X obj 219 332 bng 19 250 50 0 empty empty empty 0 -10 0 12 #fcfcfc #000000 #000000;
#X obj 269 332 bng 19 250 50 0 empty empty empty 0 -10 0 12 #fcfcfc #000000 #000000;
#X obj 318 332 bng 19 250 50 0 empty empty empty 0 -10 0 12 #fcfcfc #000000 #000000;
#X obj 362 332 bng 19 250 50 0 empty empty empty 0 -10 0 12 #fcfcfc #000000 #000000;
#X obj 409 332 bng 19 250 50 0 empty empty empty 0 -10 0 12 #fcfcfc #000000 #000000;
#X obj 458 333 bng 19 250 50 0 empty empty empty 0 -10 0 12 #fcfcfc #000000 #000000;
#X obj 507 332 bng 19 250 50 0 empty empty empty 0 -10 0 12 #fcfcfc #000000 #000000;
#X obj 558 332 bng 19 250 50 0 empty empty empty 0 -10 0 12 #fcfcfc #000000 #000000;
#X obj 990 136 random 10;
#X floatatom 990 160 5 0 0 0 - - - 0;
#X obj 990 183 * 0.1;
#X floatatom 990 207 5 0 0 0 - - - 0;
#X floatatom 1091 160 5 0 0 0 - - - 0;
#X obj 1091 183 * 0.1;
#X floatatom 1091 207 5 0 0 0 - - - 0;
#X obj 1039 60 bng 19 250 50 0 empty empty empty 0 -10 0 12 #fcfcfc #000000 #000000;
#X obj 1091 136 random 4;
#X obj 990 232 s demo_x;
#X obj 1091 232 s demo_y;
#X text 1070 59 <- generates random xy coordiantes for testing;
#X obj 708 300 sel 2;
#X obj 756 301 sel 3;
#X obj 800 302 sel 4;
#X obj 666 330 bng 19 250 50 0 empty empty empty 0 -10 0 12 #fcfcfc #000000 #000000;
#X obj 716 330 bng 19 250 50 0 empty empty empty 0 -10 0 12 #fcfcfc #000000 #000000;
#X obj 765 330 bng 19 250 50 0 empty empty empty 0 -10 0 12 #fcfcfc #000000 #000000;
#X obj 809 330 bng 19 250 50 0 empty empty empty 0 -10 0 12 #fcfcfc #000000 #000000;
#X obj 656 301 sel 1;
#X msg 656 355 0.5;
#X msg 708 355 1;
#X msg 756 355 2;
#X msg 800 355 4;
#X connect 0 0 11 0;
#X connect 0 0 12 0;
#X connect 0 0 13 0;
#X connect 0 0 14 0;
#X connect 0 0 15 0;
#X connect 0 0 16 0;
#X connect 0 0 17 0;
#X connect 0 0 18 0;
#X connect 2 0 10 0;
#X connect 3 0 10 0;
#X connect 4 0 10 0;
#X connect 5 0 10 0;
#X connect 6 0 10 0;
#X connect 7 0 10 0;
#X connect 8 0 10 0;
#X connect 9 0 10 0;
#X connect 10 0 26 0;
#X connect 11 0 2 0;
#X connect 11 0 28 0;
#X connect 12 0 3 0;
#X connect 12 0 29 0;
#X connect 13 0 4 0;
#X connect 13 0 30 0;
#X connect 14 0 5 0;
#X connect 14 0 31 0;
#X connect 15 0 6 0;
#X connect 15 0 32 0;
#X connect 16 0 9 0;
#X connect 16 0 33 0;
#X connect 17 0 7 0;
#X connect 17 0 34 0;
#X connect 18 0 8 0;
#X connect 18 0 35 0;
#X connect 19 0 27 0;
#X connect 20 0 48 0;
#X connect 20 0 49 0;
#X connect 20 0 50 0;
#X connect 20 0 55 0;
#X connect 26 0 19 0;
#X connect 27 0 1 0;
#X connect 36 0 37 0;
#X connect 37 0 38 0;
#X connect 38 0 39 0;
#X connect 39 0 45 0;
#X connect 40 0 41 0;
#X connect 41 0 42 0;
#X connect 42 0 46 0;
#X connect 43 0 36 0;
#X connect 43 0 44 0;
#X connect 44 0 40 0;
#X connect 48 0 57 0;
#X connect 48 0 52 0;
#X connect 49 0 58 0;
#X connect 49 0 53 0;
#X connect 50 0 59 0;
#X connect 50 0 54 0;
#X connect 55 0 56 0;
#X connect 55 0 51 0;
#X connect 56 0 19 1;
#X connect 57 0 19 1;
#X connect 58 0 19 1;
#X connect 59 0 19 1;
#X restore 195 311 pd chord_scale;
#X obj 79 494 *~ 0.02;
#X obj 59 237 t b b b f;
#X obj 59 192 inlet;
#X obj 79 569 outlet~;
#X obj 290 194 inlet;
#N canvas 0 25 1440 847 waveform_bell 0;
#X obj 141 109 osc~;
#X obj 173 109 osc~;
#X obj 174 82 * 3;
#X obj 210 107 osc~;
#X obj 248 109 osc~;
#X obj 290 110 osc~;
#X obj 322 111 osc~;
#X obj 211 80 * 5.01;
#X obj 262 82 * 7.02;
#X obj 308 81 * 9.03;
#X obj 361 81 * 11.04;
#X obj 174 136 *~ 0.3;
#X obj 208 158 *~ 0.2;
#X obj 243 135 *~ 0.15;
#X obj 283 161 *~ 0.1;
#X obj 320 136 *~ 0.1;
#X obj 130 180 +~;
#X obj 169 179 +~;
#X obj 210 183 +~;
#X obj 243 187 +~;
#X obj 279 188 +~;
#X obj 317 189 +~;
#X obj 130 243 outlet~;
#X obj 141 26 inlet;
#X connect 0 0 16 0;
#X connect 1 0 11 0;
#X connect 2 0 1 0;
#X connect 3 0 12 0;
#X connect 4 0 13 0;
#X connect 5 0 14 0;
#X connect 6 0 15 0;
#X connect 7 0 3 0;
#X connect 8 0 4 0;
#X connect 9 0 5 0;
#X connect 10 0 6 0;
#X connect 11 0 17 0;
#X connect 12 0 18 0;
#X connect 13 0 19 0;
#X connect 14 0 20 0;
#X connect 15 0 21 0;
#X connect 16 0 22 0;
#X connect 17 0 16 1;
#X connect 18 0 17 1;
#X connect 19 0 18 1;
#X connect 20 0 19 1;
#X connect 21 0 20 1;
#X connect 23 0 0 0;
#X connect 23 0 2 0;
#X connect 23 0 7 0;
#X connect 23 0 8 0;
#X connect 23 0 9 0;
#X connect 23 0 10 0;
#X restore 195 390 pd waveform_bell;
#X text 141 569 output bell sound;
#X obj 628 459 *~;
#X obj 627 343 vline~;
#X obj 628 385 *~;
#X msg 666 310 0 0;
#X msg 627 310 1 1;
#X obj 570 283 delay 2;
#X msg 568 311 0 1000;
#N canvas 0 25 1440 847 chord_scale 0;
#X obj 270 197 inlet;
#X obj 247 683 outlet;
#X msg 107 339 60;
#X msg 159 338 62;
#X msg 207 339 64;
#X msg 251 340 65;
#X msg 299 340 67;
#X msg 396 339 71;
#X msg 445 338 72;
#X msg 346 340 69;
#X obj 251 436 mtof;
#X obj 107 315 sel 1;
#X obj 159 314 sel 2;
#X obj 207 315 sel 3;
#X obj 251 316 sel 4;
#X obj 299 316 sel 5;
#X obj 346 316 sel 6;
#X obj 396 315 sel 7;
#X obj 445 314 sel 8;
#X obj 251 545 *;
#X msg 590 342 0.5;
#X msg 638 340 1;
#X msg 685 340 2;
#X obj 668 220 inlet;
#X obj 590 312 sel 1;
#X obj 638 313 sel 2;
#X obj 685 312 sel 3;
#X obj 734 311 sel 4;
#X msg 734 339 4;
#X connect 0 0 11 0;
#X connect 0 0 12 0;
#X connect 0 0 13 0;
#X connect 0 0 14 0;
#X connect 0 0 15 0;
#X connect 0 0 16 0;
#X connect 0 0 17 0;
#X connect 0 0 18 0;
#X connect 2 0 10 0;
#X connect 3 0 10 0;
#X connect 4 0 10 0;
#X connect 5 0 10 0;
#X connect 6 0 10 0;
#X connect 7 0 10 0;
#X connect 8 0 10 0;
#X connect 9 0 10 0;
#X connect 10 0 19 0;
#X connect 11 0 2 0;
#X connect 12 0 3 0;
#X connect 13 0 4 0;
#X connect 14 0 5 0;
#X connect 15 0 6 0;
#X connect 16 0 9 0;
#X connect 17 0 7 0;
#X connect 18 0 8 0;
#X connect 19 0 1 0;
#X connect 20 0 19 1;
#X connect 21 0 19 1;
#X connect 22 0 19 1;
#X connect 23 0 24 0;
#X connect 23 0 25 0;
#X connect 23 0 26 0;
#X connect 23 0 27 0;
#X connect 24 0 20 0;
#X connect 25 0 21 0;
#X connect 26 0 22 0;
#X connect 27 0 28 0;
#X connect 28 0 19 1;
#X restore 703 310 pd chord_scale;
#X obj 628 487 *~ 0.02;
#X obj 608 230 t b b b f;
#X obj 608 185 inlet;
#X obj 628 562 outlet~;
#X obj 798 193 inlet;
#N canvas 63 88 450 300 waveform_bell 0;
#X obj 141 109 osc~;
#X obj 173 109 osc~;
#X obj 174 82 * 3;
#X obj 210 107 osc~;
#X obj 248 109 osc~;
#X obj 290 110 osc~;
#X obj 322 111 osc~;
#X obj 211 80 * 5.01;
#X obj 262 82 * 7.02;
#X obj 308 81 * 9.03;
#X obj 361 81 * 11.04;
#X obj 174 136 *~ 0.3;
#X obj 208 158 *~ 0.2;
#X obj 243 135 *~ 0.15;
#X obj 283 161 *~ 0.1;
#X obj 320 136 *~ 0.1;
#X obj 130 180 +~;
#X obj 169 179 +~;
#X obj 210 183 +~;
#X obj 243 187 +~;
#X obj 279 188 +~;
#X obj 317 189 +~;
#X obj 130 243 outlet~;
#X obj 141 26 inlet;
#X connect 0 0 16 0;
#X connect 1 0 11 0;
#X connect 2 0 1 0;
#X connect 3 0 12 0;
#X connect 4 0 13 0;
#X connect 5 0 14 0;
#X connect 6 0 15 0;
#X connect 7 0 3 0;
#X connect 8 0 4 0;
#X connect 9 0 5 0;
#X connect 10 0 6 0;
#X connect 11 0 17 0;
#X connect 12 0 18 0;
#X connect 13 0 19 0;
#X connect 14 0 20 0;
#X connect 15 0 21 0;
#X connect 16 0 22 0;
#X connect 17 0 16 1;
#X connect 18 0 17 1;
#X connect 19 0 18 1;
#X connect 20 0 19 1;
#X connect 21 0 20 1;
#X connect 23 0 0 0;
#X connect 23 0 2 0;
#X connect 23 0 7 0;
#X connect 23 0 8 0;
#X connect 23 0 9 0;
#X connect 23 0 10 0;
#X restore 703 346 pd waveform_bell;
#X obj 898 467 *~;
#X obj 897 351 vline~;
#X obj 898 393 *~;
#X msg 936 318 0 0;
#X msg 897 318 1 1;
#X obj 840 291 delay 2;
#X msg 838 319 0 1000;
#N canvas 0 25 1440 847 chord_scale 0;
#X obj 270 197 inlet;
#X obj 247 683 outlet;
#X msg 107 339 60;
#X msg 159 338 62;
#X msg 207 339 64;
#X msg 251 340 65;
#X msg 299 340 67;
#X msg 396 339 71;
#X msg 445 338 72;
#X msg 346 340 69;
#X obj 251 436 mtof;
#X obj 107 315 sel 1;
#X obj 159 314 sel 2;
#X obj 207 315 sel 3;
#X obj 251 316 sel 4;
#X obj 299 316 sel 5;
#X obj 346 316 sel 6;
#X obj 396 315 sel 7;
#X obj 445 314 sel 8;
#X obj 251 545 *;
#X msg 590 342 0.5;
#X msg 638 340 1;
#X msg 685 340 2;
#X obj 668 220 inlet;
#X obj 590 312 sel 1;
#X obj 638 313 sel 2;
#X obj 685 312 sel 3;
#X obj 734 311 sel 4;
#X msg 734 339 4;
#X connect 0 0 11 0;
#X connect 0 0 12 0;
#X connect 0 0 13 0;
#X connect 0 0 14 0;
#X connect 0 0 15 0;
#X connect 0 0 16 0;
#X connect 0 0 17 0;
#X connect 0 0 18 0;
#X connect 2 0 10 0;
#X connect 3 0 10 0;
#X connect 4 0 10 0;
#X connect 5 0 10 0;
#X connect 6 0 10 0;
#X connect 7 0 10 0;
#X connect 8 0 10 0;
#X connect 9 0 10 0;
#X connect 10 0 19 0;
#X connect 11 0 2 0;
#X connect 12 0 3 0;
#X connect 13 0 4 0;
#X connect 14 0 5 0;
#X connect 15 0 6 0;
#X connect 16 0 9 0;
#X connect 17 0 7 0;
#X connect 18 0 8 0;
#X connect 19 0 1 0;
#X connect 20 0 19 1;
#X connect 21 0 19 1;
#X connect 22 0 19 1;
#X connect 23 0 24 0;
#X connect 23 0 25 0;
#X connect 23 0 26 0;
#X connect 23 0 27 0;
#X connect 24 0 20 0;
#X connect 25 0 21 0;
#X connect 26 0 22 0;
#X connect 27 0 28 0;
#X connect 28 0 19 1;
#X restore 973 318 pd chord_scale;
#X obj 898 495 *~ 0.02;
#X obj 878 238 t b b b f;
#X obj 878 193 inlet;
#X obj 898 570 outlet~;
#X obj 1068 201 inlet;
#N canvas 63 88 450 300 waveform_bell 0;
#X obj 141 109 osc~;
#X obj 173 109 osc~;
#X obj 174 82 * 3;
#X obj 210 107 osc~;
#X obj 248 109 osc~;
#X obj 290 110 osc~;
#X obj 322 111 osc~;
#X obj 211 80 * 5.01;
#X obj 262 82 * 7.02;
#X obj 308 81 * 9.03;
#X obj 361 81 * 11.04;
#X obj 174 136 *~ 0.3;
#X obj 208 158 *~ 0.2;
#X obj 243 135 *~ 0.15;
#X obj 283 161 *~ 0.1;
#X obj 320 136 *~ 0.1;
#X obj 130 180 +~;
#X obj 169 179 +~;
#X obj 210 183 +~;
#X obj 243 187 +~;
#X obj 279 188 +~;
#X obj 317 189 +~;
#X obj 130 243 outlet~;
#X obj 141 26 inlet;
#X connect 0 0 16 0;
#X connect 1 0 11 0;
#X connect 2 0 1 0;
#X connect 3 0 12 0;
#X connect 4 0 13 0;
#X connect 5 0 14 0;
#X connect 6 0 15 0;
#X connect 7 0 3 0;
#X connect 8 0 4 0;
#X connect 9 0 5 0;
#X connect 10 0 6 0;
#X connect 11 0 17 0;
#X connect 12 0 18 0;
#X connect 13 0 19 0;
#X connect 14 0 20 0;
#X connect 15 0 21 0;
#X connect 16 0 22 0;
#X connect 17 0 16 1;
#X connect 18 0 17 1;
#X connect 19 0 18 1;
#X connect 20 0 19 1;
#X connect 21 0 20 1;
#X connect 23 0 0 0;
#X connect 23 0 2 0;
#X connect 23 0 7 0;
#X connect 23 0 8 0;
#X connect 23 0 9 0;
#X connect 23 0 10 0;
#X restore 973 354 pd waveform_bell;
#X obj 1182 470 *~;
#X obj 1181 354 vline~;
#X obj 1182 396 *~;
#X msg 1220 321 0 0;
#X msg 1181 321 1 1;
#X obj 1124 294 delay 2;
#X msg 1122 322 0 1000;
#N canvas 0 25 1440 847 chord_scale 0;
#X obj 270 197 inlet;
#X obj 247 683 outlet;
#X msg 107 339 60;
#X msg 159 338 62;
#X msg 207 339 64;
#X msg 251 340 65;
#X msg 299 340 67;
#X msg 396 339 71;
#X msg 445 338 72;
#X msg 346 340 69;
#X obj 251 436 mtof;
#X obj 107 315 sel 1;
#X obj 159 314 sel 2;
#X obj 207 315 sel 3;
#X obj 251 316 sel 4;
#X obj 299 316 sel 5;
#X obj 346 316 sel 6;
#X obj 396 315 sel 7;
#X obj 445 314 sel 8;
#X obj 251 545 *;
#X msg 590 342 0.5;
#X msg 638 340 1;
#X msg 685 340 2;
#X obj 668 220 inlet;
#X obj 590 312 sel 1;
#X obj 638 313 sel 2;
#X obj 685 312 sel 3;
#X obj 734 311 sel 4;
#X msg 734 339 4;
#X connect 0 0 11 0;
#X connect 0 0 12 0;
#X connect 0 0 13 0;
#X connect 0 0 14 0;
#X connect 0 0 15 0;
#X connect 0 0 16 0;
#X connect 0 0 17 0;
#X connect 0 0 18 0;
#X connect 2 0 10 0;
#X connect 3 0 10 0;
#X connect 4 0 10 0;
#X connect 5 0 10 0;
#X connect 6 0 10 0;
#X connect 7 0 10 0;
#X connect 8 0 10 0;
#X connect 9 0 10 0;
#X connect 10 0 19 0;
#X connect 11 0 2 0;
#X connect 12 0 3 0;
#X connect 13 0 4 0;
#X connect 14 0 5 0;
#X connect 15 0 6 0;
#X connect 16 0 9 0;
#X connect 17 0 7 0;
#X connect 18 0 8 0;
#X connect 19 0 1 0;
#X connect 20 0 19 1;
#X connect 21 0 19 1;
#X connect 22 0 19 1;
#X connect 23 0 24 0;
#X connect 23 0 25 0;
#X connect 23 0 26 0;
#X connect 23 0 27 0;
#X connect 24 0 20 0;
#X connect 25 0 21 0;
#X connect 26 0 22 0;
#X connect 27 0 28 0;
#X connect 28 0 19 1;
#X restore 1257 321 pd chord_scale;
#X obj 1182 498 *~ 0.02;
#X obj 1162 241 t b b b f;
#X obj 1162 196 inlet;
#X obj 1182 573 outlet~;
#X obj 1352 204 inlet;
#N canvas 63 88 450 300 waveform_bell 0;
#X obj 141 109 osc~;
#X obj 173 109 osc~;
#X obj 174 82 * 3;
#X obj 210 107 osc~;
#X obj 248 109 osc~;
#X obj 290 110 osc~;
#X obj 322 111 osc~;
#X obj 211 80 * 5.01;
#X obj 262 82 * 7.02;
#X obj 308 81 * 9.03;
#X obj 361 81 * 11.04;
#X obj 174 136 *~ 0.3;
#X obj 208 158 *~ 0.2;
#X obj 243 135 *~ 0.15;
#X obj 283 161 *~ 0.1;
#X obj 320 136 *~ 0.1;
#X obj 130 180 +~;
#X obj 169 179 +~;
#X obj 210 183 +~;
#X obj 243 187 +~;
#X obj 279 188 +~;
#X obj 317 189 +~;
#X obj 130 243 outlet~;
#X obj 141 26 inlet;
#X connect 0 0 16 0;
#X connect 1 0 11 0;
#X connect 2 0 1 0;
#X connect 3 0 12 0;
#X connect 4 0 13 0;
#X connect 5 0 14 0;
#X connect 6 0 15 0;
#X connect 7 0 3 0;
#X connect 8 0 4 0;
#X connect 9 0 5 0;
#X connect 10 0 6 0;
#X connect 11 0 17 0;
#X connect 12 0 18 0;
#X connect 13 0 19 0;
#X connect 14 0 20 0;
#X connect 15 0 21 0;
#X connect 16 0 22 0;
#X connect 17 0 16 1;
#X connect 18 0 17 1;
#X connect 19 0 18 1;
#X connect 20 0 19 1;
#X connect 21 0 20 1;
#X connect 23 0 0 0;
#X connect 23 0 2 0;
#X connect 23 0 7 0;
#X connect 23 0 8 0;
#X connect 23 0 9 0;
#X connect 23 0 10 0;
#X restore 1257 357 pd waveform_bell;
#X text 101 192 <- x-input pick the pitch;
#X text 340 191 <- y-input to pick octave;
#X text 303 309 <- sets pitch and octave;
#X text 324 327 outputs the frequenzy;
#X text 314 392 <- [osc~] buch of sindewave generators;
#X text 433 410 they make the sound, f 21;
#X connect 0 0 8 0;
#X connect 1 0 2 0;
#X connect 1 0 2 1;
#X connect 2 0 0 0;
#X connect 3 0 1 0;
#X connect 4 0 1 0;
#X connect 5 0 6 0;
#X connect 6 0 1 0;
#X connect 7 0 13 0;
#X connect 8 0 11 0;
#X connect 9 0 5 0;
#X connect 9 1 4 0;
#X connect 9 2 3 0;
#X connect 9 3 7 0;
#X connect 10 0 9 0;
#X connect 12 0 7 1;
#X connect 13 0 0 1;
#X connect 15 0 23 0;
#X connect 16 0 17 0;
#X connect 16 0 17 1;
#X connect 17 0 15 0;
#X connect 18 0 16 0;
#X connect 19 0 16 0;
#X connect 20 0 21 0;
#X connect 21 0 16 0;
#X connect 22 0 28 0;
#X connect 23 0 26 0;
#X connect 24 0 20 0;
#X connect 24 1 19 0;
#X connect 24 2 18 0;
#X connect 24 3 22 0;
#X connect 25 0 24 0;
#X connect 27 0 22 1;
#X connect 28 0 15 1;
#X connect 29 0 37 0;
#X connect 30 0 31 0;
#X connect 30 0 31 1;
#X connect 31 0 29 0;
#X connect 32 0 30 0;
#X connect 33 0 30 0;
#X connect 34 0 35 0;
#X connect 35 0 30 0;
#X connect 36 0 42 0;
#X connect 37 0 40 0;
#X connect 38 0 34 0;
#X connect 38 1 33 0;
#X connect 38 2 32 0;
#X connect 38 3 36 0;
#X connect 39 0 38 0;
#X connect 41 0 36 1;
#X connect 42 0 29 1;
#X connect 43 0 51 0;
#X connect 44 0 45 0;
#X connect 44 0 45 1;
#X connect 45 0 43 0;
#X connect 46 0 44 0;
#X connect 47 0 44 0;
#X connect 48 0 49 0;
#X connect 49 0 44 0;
#X connect 50 0 56 0;
#X connect 51 0 54 0;
#X connect 52 0 48 0;
#X connect 52 1 47 0;
#X connect 52 2 46 0;
#X connect 52 3 50 0;
#X connect 53 0 52 0;
#X connect 55 0 50 1;
#X connect 56 0 43 1;
#X restore 276 273 pd bell_synth~;
#N canvas 0 28 1440 872 tapedelay~ 0;
#X obj 114 153 inlet~;
#X obj 188 452 outlet~;
#X obj 121 340 *~;
#X floatatom 139 313 5 0 0 1 dry - - 0;
#X text 444 515 https://www.youtube.com/watch?v=6Cw60uW8JJU;
#X text 500 532 Tape Delay Emulation by Sound Codex;
#X obj 238 337 *~;
#X floatatom 256 310 5 0 0 1 wet - - 0;
#X obj 136 185 r~ feedback;
#X obj 136 209 delwrite~ tapedelay 2000;
#X floatatom 377 228 5 0 0 1 delay\ time - - 0;
#X msg 377 254 \$1 100;
#X obj 377 278 line~;
#X obj 377 302 delread4~ tapedelay;
#X obj 377 326 lop~ 8000;
#X obj 377 350 lop~ 8000;
#X obj 377 374 hip~ 300;
#X floatatom 545 323 5 0 0 1 cutoff_low - - 0;
#X floatatom 671 347 5 0 0 1 cutoff_high - - 0;
#X obj 377 439 *~;
#X floatatom 518 442 5 0 0 1 feedback - - 0;
#X obj 377 463 s~ feedback;
#X obj 103 449 outlet~;
#X obj 140 250 loadbang;
#X msg 140 274 1;
#X obj 256 251 loadbang;
#X msg 256 275 1.5;
#X obj 377 173 loadbang;
#X msg 377 197 600;
#X obj 545 273 loadbang;
#X obj 671 296 loadbang;
#X msg 545 297 2000;
#X obj 518 393 loadbang;
#X msg 518 417 0.9;
#X msg 671 320 300;
#X connect 0 0 2 0;
#X connect 0 0 9 0;
#X connect 2 0 1 0;
#X connect 2 0 22 0;
#X connect 3 0 2 1;
#X connect 6 0 1 0;
#X connect 6 0 22 0;
#X connect 7 0 6 1;
#X connect 8 0 9 0;
#X connect 10 0 11 0;
#X connect 11 0 12 0;
#X connect 12 0 13 0;
#X connect 13 0 14 0;
#X connect 13 0 6 0;
#X connect 14 0 15 0;
#X connect 15 0 16 0;
#X connect 16 0 19 0;
#X connect 17 0 14 1;
#X connect 17 0 15 1;
#X connect 18 0 16 1;
#X connect 19 0 21 0;
#X connect 20 0 19 1;
#X connect 23 0 24 0;
#X connect 24 0 3 0;
#X connect 25 0 26 0;
#X connect 26 0 7 0;
#X connect 27 0 28 0;
#X connect 28 0 10 0;
#X connect 29 0 31 0;
#X connect 30 0 34 0;
#X connect 31 0 17 0;
#X connect 32 0 33 0;
#X connect 33 0 20 0;
#X connect 34 0 18 0;
#X restore 304 445 pd tapedelay~;
#N canvas 0 28 1440 872 fade_out~ 0;
#X obj 59 28 inlet~;
#X obj 59 260 outlet~;
#X obj 251 52 r ON;
#X obj 251 76 sel 0;
#X obj 59 215 *~;
#X obj 77 187 line~;
#X msg 164 128 1 100;
#X obj 251 101 delay 1000;
#X msg 251 127 0 4000;
#X obj 164 50 r ON;
#X obj 164 74 sel 1;
#X connect 0 0 4 0;
#X connect 2 0 3 0;
#X connect 3 0 7 0;
#X connect 4 0 1 0;
#X connect 5 0 4 1;
#X connect 6 0 5 0;
#X connect 7 0 8 0;
#X connect 8 0 5 0;
#X connect 9 0 10 0;
#X connect 10 0 6 0;
#X restore 148 597 pd fade_out~;
#X text 100 116 <- generates time ques to trigger;
#X text 519 310 <- resets and sends patch to sleap;
#X obj 148 675 *~;
#X obj 166 650 r main_volume;
#X obj 992 608 vsl 19 162 0 127 0 0 empty empty empty 0 -9 0 12 #bbbbbb #000000 #000000 0 1;
#N canvas 0 25 1440 847 main_volume 0;
#X obj 575 457 s main_volume;
#X obj 575 404 loadbang;
#X obj 508 403 inlet;
#X msg 575 430 1;
#X connect 1 0 3 0;
#X connect 2 0 0 0;
#X connect 3 0 0 0;
#X restore 992 780 pd main_volume;
#X text 273 649 <- recive variabel master volume;
#X text 1033 670 <- set variabel master volume;
#N canvas 0 28 1440 872 demo_subpatch 0;
#X obj 197 118 send x;
#X obj 195 182 receive x;
#X floatatom 195 206 5 0 0 0 - - - 0;
#X obj 197 94 tgl 19 0 empty empty empty 0 -10 0 12 #fcfcfc #000000 #000000 0 1;
#X floatatom 307 206 5 0 0 0 - - - 0;
#X obj 309 95 tgl 19 0 empty empty empty 0 -10 0 12 #fcfcfc #000000 #000000 0 1;
#X obj 309 118 s y;
#X obj 307 182 r y;
#X floatatom 57 206 5 0 0 0 - - - 0;
#X obj 57 93 tgl 19 0 empty empty empty 0 -10 0 12 #fcfcfc #000000 #000000 0 1;
#X obj 596 78 bng 19 250 50 0 empty empty empty 0 -10 0 12 #fcfcfc #000000 #000000;
#X obj 596 111 random 8;
#X floatatom 596 210 5 0 0 0 - - - 0;
#X obj 1012 233 osc~;
#X obj 1008 434 dac~;
#X obj 1015 362 *~;
#X msg 1012 191 1000;
#X obj 1084 191 hsl 162 19 50 500 0 0 empty empty empty -2 -10 0 12 #fcfcfc #000000 #000000 0 1;
#X msg 1104 296 0;
#X obj 140 352 bng 19 250 50 0 empty empty empty 0 -10 0 12 #fcfcfc #000000 #000000;
#X floatatom 140 415 5 0 0 0 - - - 0;
#X obj 63 482 sel 0;
#X obj 138 483 sel 1;
#X obj 237 483 sel 2;
#X msg 420 391 2;
#X msg 461 391 4;
#X floatatom 432 494 5 0 0 0 - - - 0;
#X obj 432 440 +;
#X msg 521 390 2;
#X msg 562 390 4;
#X floatatom 533 493 5 0 0 0 - - - 0;
#X obj 533 439 *;
#X obj 562 355 loadbang;
#X floatatom 1081 215 5 0 0 0 - - - 0;
#X msg 95 93 41;
#X listbox 95 614 20 0 0 0 - - - 0;
#X text 881 191 set frequenzy ->;
#X text 741 234 creates audios ignal (sine wave) ->;
#X text 789 360 set volume with multiplier ->;
#X text 706 436 output to sound card / audio interface ->;
#X msg 63 530 0 1 1 2;
#X msg 138 531 3 five eight;
#X msg 237 531 set Hello its me;
#X obj 140 385 random 3;
#X msg 1053 298 0.2;
#X connect 1 0 2 0;
#X connect 3 0 0 0;
#X connect 5 0 6 0;
#X connect 7 0 4 0;
#X connect 9 0 8 0;
#X connect 10 0 11 0;
#X connect 11 0 12 0;
#X connect 13 0 15 0;
#X connect 15 0 14 0;
#X connect 15 0 14 1;
#X connect 16 0 13 0;
#X connect 17 0 13 0;
#X connect 17 0 33 0;
#X connect 18 0 15 1;
#X connect 19 0 43 0;
#X connect 20 0 21 0;
#X connect 20 0 22 0;
#X connect 20 0 23 0;
#X connect 21 0 40 0;
#X connect 22 0 41 0;
#X connect 23 0 42 0;
#X connect 24 0 27 0;
#X connect 25 0 27 1;
#X connect 27 0 26 0;
#X connect 28 0 31 0;
#X connect 29 0 31 1;
#X connect 31 0 30 0;
#X connect 32 0 29 0;
#X connect 34 0 8 0;
#X connect 40 0 35 0;
#X connect 41 0 35 0;
#X connect 42 0 35 0;
#X connect 43 0 20 0;
#X connect 44 0 15 1;
#X restore 858 47 pd demo_subpatch;
#X connect 1 0 34 0;
#X connect 2 0 0 0;
#X connect 3 0 0 1;
#X connect 4 0 5 0;
#X connect 6 0 32 0;
#X connect 6 1 32 1;
#X connect 6 2 32 2;
#X connect 6 3 32 3;
#X connect 6 4 32 4;
#X connect 6 5 32 5;
#X connect 6 6 32 6;
#X connect 6 7 32 7;
#X connect 6 8 8 0;
#X connect 8 0 9 0;
#X connect 9 0 10 0;
#X connect 11 0 12 0;
#X connect 12 0 13 0;
#X connect 13 0 14 0;
#X connect 14 0 20 0;
#X connect 15 0 16 0;
#X connect 16 0 17 0;
#X connect 17 0 21 0;
#X connect 18 0 11 0;
#X connect 18 0 19 0;
#X connect 19 0 15 0;
#X connect 30 0 1 0;
#X connect 31 0 1 0;
#X connect 32 0 33 0;
#X connect 32 1 33 0;
#X connect 32 2 33 0;
#X connect 32 3 33 0;
#X connect 33 0 1 0;
#X connect 33 1 1 0;
#X connect 34 0 37 0;
#X connect 37 0 2 0;
#X connect 37 0 3 0;
#X connect 38 0 37 1;
#X connect 39 0 40 0;
