#N canvas 0 25 1440 847 12;
#X obj 77 29 loadbang;
#X msg 9 74 60000;
#X obj 170 40 loadbang;
#X msg 81 75 60;
#X floatatom 81 99 5 0 0 0 - - - 0;
#X text 69 10 BPM;
#X obj 63 125 bng 19 250 50 0 empty empty empty 0 -10 0 12 #fcfcfc #000000 #000000;
#X obj 63 157 /;
#X floatatom 63 181 5 0 0 0 - - - 0;
#X obj 63 204 s 4th_time;
#X obj 365 33 r ON;
#X obj 365 57 sel 0;
#X obj 365 84 bng 19 250 50 0 empty empty empty 0 -10 0 12 #fcfcfc #000000 #000000;
#X obj 299 33 loadbang;
#X msg 365 108 -1;
#X obj 425 79 r whole_note;
#X obj 425 106 bng 19 250 50 0 empty empty empty 0 -10 0 12 #fcfcfc #000000 #000000;
#X obj 425 130 int 1;
#X obj 493 157 + 1;
#X floatatom 425 154 5 0 0 0 - - - 0;
#X obj 425 177 % 2;
#X obj 425 201 + 1;
#X obj 425 225 sel 1;
#X obj 425 249 bng 19 250 50 0 empty empty empty 0 -10 0 12 #fcfcfc #000000 #000000;
#X obj 425 271 tgl 19 0 empty empty empty 0 -10 0 12 #fcfcfc #000000 #000000 0 1;
#X obj 425 295 s chord;
#X obj 359 151 r ON;
#X obj 359 175 sel 0;
#X msg 359 199 1;
#X obj 286 174 loadbang;
#X text 321 6 clock sequencer;
#X obj 583 57 r ON;
#X obj 632 60 r 4th_time;
#X floatatom 645 107 5 0 0 0 - - - 0;
#X obj 632 131 metro;
#X obj 632 156 bng 19 250 50 0 empty empty empty 0 -10 0 12 #fcfcfc #000000 #000000;
#X obj 632 180 s whole_note;
#X obj 680 130 s whole_time;
#X obj 814 54 r ON;
#X obj 863 57 r 4th_time;
#X floatatom 882 105 5 0 0 0 - - - 0;
#X obj 863 128 metro;
#X obj 863 153 bng 19 250 50 0 empty empty empty 0 -10 0 12 #fcfcfc #000000 #000000;
#X obj 632 84 * 4;
#X obj 863 81 * 1;
#X obj 863 177 s 4th_note;
#X text 703 8 clock multiplication;
#X obj 46 527 r chord;
#X obj 46 551 tgl 19 0 empty empty empty 0 -10 0 12 #fcfcfc #000000 #000000 0 1;
#X obj 46 575 sel 0;
#X obj 46 602 bng 19 250 50 0 empty empty empty 0 -10 0 12 #fcfcfc #000000 #000000;
#X obj 78 603 bng 19 250 50 0 empty empty empty 0 -10 0 12 #fcfcfc #000000 #000000;
#X msg 44 651 130.81;
#X msg 98 651 87.31;
#X text 68 627 c;
#X text 123 627 f;
#X obj 44 691 phasor~;
#X obj 44 715 lop~ 100;
#X obj 44 757 *~;
#X obj 173 624 r ON;
#X obj 173 648 sel 1;
#X obj 173 674 bng 19 250 50 0 empty empty empty 0 -10 0 12 #fcfcfc #000000 #000000;
#X msg 173 698 1 500;
#X obj 258 565 r whole_time;
#X obj 258 589 * 2;
#X floatatom 258 613 5 0 0 0 - - - 0;
#X obj 258 636 - 100;
#X obj 226 669 delay;
#X obj 322 620 r ON;
#X obj 322 644 sel 0;
#X obj 205 1201 dac~;
#X obj 482 535 r whole_note;
#X obj 482 560 bng 19 250 50 0 empty empty empty 0 -10 0 12 #fcfcfc #000000 #000000;
#N canvas 0 25 1440 847 chord_scale 0;
#X obj 187 183 inlet;
#X obj 225 566 outlet;
#X obj 187 218 bng 19 250 50 0 empty empty empty 0 -10 0 12 #fcfcfc #000000 #000000;
#X obj 187 257 random 8;
#X obj 107 315 sel 0;
#X msg 107 339 60;
#X obj 159 314 sel 1;
#X msg 159 338 62;
#X obj 207 315 sel 2;
#X msg 207 339 64;
#X obj 251 316 sel 3;
#X obj 299 316 sel 4;
#X obj 346 316 sel 5;
#X obj 396 315 sel 6;
#X obj 445 314 sel 7;
#X msg 251 340 65;
#X msg 299 340 67;
#X msg 396 339 71;
#X msg 445 338 72;
#X msg 346 340 69;
#X obj 219 433 mtof;
#X connect 0 0 2 0;
#X connect 2 0 3 0;
#X connect 3 0 4 0;
#X connect 3 0 6 0;
#X connect 3 0 8 0;
#X connect 3 0 10 0;
#X connect 3 0 11 0;
#X connect 3 0 12 0;
#X connect 3 0 13 0;
#X connect 3 0 14 0;
#X connect 4 0 5 0;
#X connect 5 0 20 0;
#X connect 6 0 7 0;
#X connect 7 0 20 0;
#X connect 8 0 9 0;
#X connect 9 0 20 0;
#X connect 10 0 15 0;
#X connect 11 0 16 0;
#X connect 12 0 19 0;
#X connect 13 0 17 0;
#X connect 14 0 18 0;
#X connect 15 0 20 0;
#X connect 16 0 20 0;
#X connect 17 0 20 0;
#X connect 18 0 20 0;
#X connect 19 0 20 0;
#X connect 20 0 1 0;
#X restore 482 590 pd chord_scale;
#X floatatom 483 650 5 0 0 0 - - - 0;
#X obj 556 634 * 1.001;
#X obj 483 681 phasor~;
#X obj 556 681 phasor~;
#X obj 483 747 *~;
#X floatatom 556 658 5 0 0 0 - - - 0;
#X obj 649 564 bng 19 250 50 0 empty empty empty 0 -10 0 12 #fcfcfc #000000 #000000;
#X obj 729 562 r whole_time;
#X floatatom 729 586 5 0 0 0 - - - 0;
#X obj 729 609 - 500;
#X obj 795 599 r ON;
#X obj 697 641 delay;
#X obj 795 623 sel 0;
#X msg 649 688 1 500;
#X obj 483 723 lop~ 100;
#X obj 152 927 spacestationstereo;
#X obj 173 732 line~;
#X obj 674 735 line~;
#N canvas 0 25 1440 847 tapedelay 0;
#X obj 114 153 inlet~;
#X obj 188 452 outlet~;
#X obj 121 340 *~;
#X floatatom 139 313 5 0 0 1 dry - - 0;
#X text 444 515 https://www.youtube.com/watch?v=6Cw60uW8JJU;
#X text 500 532 Tape Delay Emulation by Sound Codex;
#X obj 238 337 *~;
#X floatatom 256 310 5 0 0 1 wet - - 0;
#X obj 136 185 r~ feedback;
#X obj 136 209 delwrite~ tapedelay 2000;
#X floatatom 377 228 5 0 0 1 delay\ time - - 0;
#X msg 377 254 \$1 100;
#X obj 377 278 line~;
#X obj 377 302 delread4~ tapedelay;
#X obj 377 326 lop~ 8000;
#X obj 377 350 lop~ 8000;
#X obj 377 374 hip~ 300;
#X floatatom 545 323 5 0 0 1 cutoff_low - - 0;
#X floatatom 671 347 5 0 0 1 cutoff_high - - 0;
#X obj 377 439 *~;
#X floatatom 518 442 5 0 0 1 feedback - - 0;
#X obj 377 463 s~ feedback;
#X obj 103 449 outlet~;
#X obj 140 250 loadbang;
#X msg 140 274 1;
#X obj 256 251 loadbang;
#X msg 256 275 1.5;
#X obj 377 173 loadbang;
#X msg 377 197 600;
#X obj 545 273 loadbang;
#X obj 671 296 loadbang;
#X msg 545 297 2000;
#X obj 518 393 loadbang;
#X msg 518 417 0.9;
#X msg 671 320 300;
#X connect 0 0 2 0;
#X connect 0 0 9 0;
#X connect 2 0 1 0;
#X connect 2 0 22 0;
#X connect 3 0 2 1;
#X connect 6 0 1 0;
#X connect 6 0 22 0;
#X connect 7 0 6 1;
#X connect 8 0 9 0;
#X connect 10 0 11 0;
#X connect 11 0 12 0;
#X connect 12 0 13 0;
#X connect 13 0 14 0;
#X connect 13 0 6 0;
#X connect 14 0 15 0;
#X connect 15 0 16 0;
#X connect 16 0 19 0;
#X connect 17 0 14 1;
#X connect 17 0 15 1;
#X connect 18 0 16 1;
#X connect 19 0 21 0;
#X connect 20 0 19 1;
#X connect 23 0 24 0;
#X connect 24 0 3 0;
#X connect 25 0 26 0;
#X connect 26 0 7 0;
#X connect 27 0 28 0;
#X connect 28 0 10 0;
#X connect 29 0 31 0;
#X connect 30 0 34 0;
#X connect 31 0 17 0;
#X connect 32 0 33 0;
#X connect 33 0 20 0;
#X connect 34 0 18 0;
#X restore 587 824 pd tapedelay;
#X obj 151 1152 clip~ -0.9 0.9;
#X obj 275 1152 clip~ -0.9 0.9;
#X obj 44 786 *~ 0.4;
#X obj 483 771 *~ 0.2;
#X obj 993 62 loadbang;
#X msg 993 87 \; pd dsp 1;
#X obj 647 392 sel 0;
#X msg 634 362 0.5;
#X msg 668 362 0;
#X floatatom 679 421 5 0 0 0 - - - 0;
#X obj 170 88 delay 10;
#X msg 20 335 60;
#X msg 72 334 62;
#X msg 120 335 64;
#X msg 164 336 65;
#X msg 212 336 67;
#X msg 309 335 71;
#X msg 358 334 72;
#X msg 259 336 69;
#X obj 132 429 mtof;
#N canvas 0 25 1440 847 data_recive 0;
#X obj 543 50 netreceive -u -b 3002;
#X obj 543 75 fudiparse;
#X obj 543 100 list;
#X obj 92 575 outlet;
#X obj 91 394 expr if ($f1 >= 0 && $f1 < 0.125 \, 1 \, if ($f1 >= 0.125 && $f1 < 0.25 \, 2 \, if ($f1 >= 0.25 && $f1 < 0.375 \, 3 \, if ($f1 >= 0.375 && $f1 < 0.5 \, 4 \, if ($f1 >= 0.5 && $f1 < 0.625 \, 5 \, if ($f1 >= 0.625 && $f1 < 0.75 \, 6 \, if ($f1 >= 0.75 && $f1 < 0.875 \, 7 \, 8))))))), f 36;
#X floatatom 92 542 5 0 0 0 - - - 0;
#X obj 542 141 unpack f f f f f f f f, f 70;
#X floatatom 542 198 6 0 0 2 \ x_value - - 0;
#X obj 542 226 change;
#X obj 362 579 outlet;
#X floatatom 362 546 5 0 0 0 - - - 0;
#X floatatom 611 197 6 0 0 2 \ y_value - - 0;
#X obj 611 225 change;
#X floatatom 681 197 6 0 0 2 \ x_value - - 0;
#X obj 681 225 change;
#X floatatom 750 196 6 0 0 2 \ y_value - - 0;
#X obj 750 224 change;
#X floatatom 820 196 6 0 0 2 \ x_value - - 0;
#X obj 820 224 change;
#X floatatom 889 195 6 0 0 2 \ y_value - - 0;
#X obj 889 223 change;
#X floatatom 959 195 6 0 0 2 \ x_value - - 0;
#X obj 959 223 change;
#X floatatom 1029 194 6 0 0 2 \ y_value - - 0;
#X obj 1029 222 change;
#X obj 57 313 hsl 162 19 0 1 0 0 empty empty empty -2 -10 0 12 #fcfcfc #000000 #000000 0 1;
#X obj 362 396 expr if ($f1 >= 0 && $f1 < 0.25 \, 1 \, if ($f1 >= 0.25 && $f1 < 0.5 \, 2 \, if ($f1 >= 0.5 && $f1 < 0.75 \, 3 \, 4))), f 14;
#X obj 489 578 outlet;
#X obj 488 397 expr if ($f1 >= 0 && $f1 < 0.125 \, 1 \, if ($f1 >= 0.125 && $f1 < 0.25 \, 2 \, if ($f1 >= 0.25 && $f1 < 0.375 \, 3 \, if ($f1 >= 0.375 && $f1 < 0.5 \, 4 \, if ($f1 >= 0.5 && $f1 < 0.625 \, 5 \, if ($f1 >= 0.625 && $f1 < 0.75 \, 6 \, if ($f1 >= 0.75 && $f1 < 0.875 \, 7 \, 8))))))), f 36;
#X floatatom 489 545 5 0 0 0 - - - 0;
#X obj 759 582 outlet;
#X floatatom 759 549 5 0 0 0 - - - 0;
#X obj 759 399 expr if ($f1 >= 0 && $f1 < 0.25 \, 1 \, if ($f1 >= 0.25 && $f1 < 0.5 \, 2 \, if ($f1 >= 0.5 && $f1 < 0.75 \, 3 \, 4))), f 14;
#X obj 880 580 outlet;
#X obj 879 399 expr if ($f1 >= 0 && $f1 < 0.125 \, 1 \, if ($f1 >= 0.125 && $f1 < 0.25 \, 2 \, if ($f1 >= 0.25 && $f1 < 0.375 \, 3 \, if ($f1 >= 0.375 && $f1 < 0.5 \, 4 \, if ($f1 >= 0.5 && $f1 < 0.625 \, 5 \, if ($f1 >= 0.625 && $f1 < 0.75 \, 6 \, if ($f1 >= 0.75 && $f1 < 0.875 \, 7 \, 8))))))), f 36;
#X floatatom 880 547 5 0 0 0 - - - 0;
#X obj 1150 584 outlet;
#X floatatom 1150 551 5 0 0 0 - - - 0;
#X obj 1150 401 expr if ($f1 >= 0 && $f1 < 0.25 \, 1 \, if ($f1 >= 0.25 && $f1 < 0.5 \, 2 \, if ($f1 >= 0.5 && $f1 < 0.75 \, 3 \, 4))), f 14;
#X connect 0 0 1 0;
#X connect 1 0 2 0;
#X connect 2 0 6 0;
#X connect 4 0 5 0;
#X connect 5 0 3 0;
#X connect 6 0 7 0;
#X connect 6 1 11 0;
#X connect 6 2 13 0;
#X connect 6 3 15 0;
#X connect 6 4 17 0;
#X connect 6 5 19 0;
#X connect 6 6 21 0;
#X connect 6 7 23 0;
#X connect 7 0 8 0;
#X connect 8 0 4 0;
#X connect 10 0 9 0;
#X connect 11 0 12 0;
#X connect 12 0 26 0;
#X connect 13 0 14 0;
#X connect 14 0 28 0;
#X connect 15 0 16 0;
#X connect 16 0 32 0;
#X connect 17 0 18 0;
#X connect 18 0 34 0;
#X connect 19 0 20 0;
#X connect 20 0 38 0;
#X connect 21 0 22 0;
#X connect 23 0 24 0;
#X connect 25 0 4 0;
#X connect 25 0 26 0;
#X connect 26 0 10 0;
#X connect 28 0 29 0;
#X connect 29 0 27 0;
#X connect 31 0 30 0;
#X connect 32 0 31 0;
#X connect 34 0 35 0;
#X connect 35 0 33 0;
#X connect 37 0 36 0;
#X connect 38 0 37 0;
#X restore 1153 360 pd data_recive;
#N canvas 0 25 1440 847 bell_synth 0;
#X obj 292 537 *~;
#X obj 257 365 vline~;
#X obj 276 400 *~;
#X obj 367 443 osc~;
#X obj 399 443 osc~;
#X obj 400 416 * 3;
#X obj 436 441 osc~;
#X obj 474 443 osc~;
#X obj 516 444 osc~;
#X obj 548 445 osc~;
#X obj 437 414 * 5.01;
#X obj 488 416 * 7.02;
#X obj 534 415 * 9.03;
#X obj 587 415 * 11.04;
#X obj 400 470 *~ 0.3;
#X obj 434 492 *~ 0.2;
#X obj 469 469 *~ 0.15;
#X obj 509 495 *~ 0.1;
#X obj 546 470 *~ 0.1;
#X obj 356 514 +~;
#X obj 395 513 +~;
#X obj 436 517 +~;
#X obj 469 521 +~;
#X obj 505 522 +~;
#X obj 543 523 +~;
#X msg 334 320 0 0;
#X msg 271 332 1 1;
#X obj 238 309 delay 2;
#X msg 216 333 0 1000;
#N canvas 0 25 1440 847 chord_scale 0;
#X obj 187 183 inlet;
#X obj 225 599 outlet;
#X msg 107 339 60;
#X msg 159 338 62;
#X msg 207 339 64;
#X msg 251 340 65;
#X msg 299 340 67;
#X msg 396 339 71;
#X msg 445 338 72;
#X msg 346 340 69;
#X obj 219 433 mtof;
#X obj 107 315 sel 1;
#X obj 159 314 sel 2;
#X obj 207 315 sel 3;
#X obj 251 316 sel 4;
#X obj 299 316 sel 5;
#X obj 346 316 sel 6;
#X obj 396 315 sel 7;
#X obj 445 314 sel 8;
#X obj 251 545 *;
#X msg 340 485 0.124;
#X msg 394 485 0.25;
#X msg 441 485 0.5;
#X msg 489 483 1;
#X msg 536 483 2;
#X obj 340 457 sel 1;
#X obj 394 456 sel 2;
#X obj 587 245 inlet;
#X obj 441 455 sel 1;
#X obj 489 456 sel 2;
#X obj 536 455 sel 3;
#X obj 585 454 sel 4;
#X msg 585 482 4;
#X connect 0 0 11 0;
#X connect 0 0 12 0;
#X connect 0 0 13 0;
#X connect 0 0 14 0;
#X connect 0 0 15 0;
#X connect 0 0 16 0;
#X connect 0 0 17 0;
#X connect 0 0 18 0;
#X connect 2 0 10 0;
#X connect 3 0 10 0;
#X connect 4 0 10 0;
#X connect 5 0 10 0;
#X connect 6 0 10 0;
#X connect 7 0 10 0;
#X connect 8 0 10 0;
#X connect 9 0 10 0;
#X connect 10 0 19 0;
#X connect 11 0 2 0;
#X connect 12 0 3 0;
#X connect 13 0 4 0;
#X connect 14 0 5 0;
#X connect 15 0 6 0;
#X connect 16 0 9 0;
#X connect 17 0 7 0;
#X connect 18 0 8 0;
#X connect 19 0 1 0;
#X connect 20 0 19 1;
#X connect 21 0 19 1;
#X connect 22 0 19 1;
#X connect 23 0 19 1;
#X connect 24 0 19 1;
#X connect 25 0 20 0;
#X connect 26 0 21 0;
#X connect 27 0 28 0;
#X connect 27 0 29 0;
#X connect 27 0 30 0;
#X connect 27 0 31 0;
#X connect 28 0 22 0;
#X connect 29 0 23 0;
#X connect 30 0 24 0;
#X connect 31 0 32 0;
#X restore 393 336 pd chord_scale;
#X obj 289 565 *~ 0.02;
#X obj 353 275 t b b b f;
#X obj 354 190 inlet;
#X obj 289 640 outlet~;
#X obj 551 197 inlet;
#X connect 0 0 30 0;
#X connect 1 0 2 0;
#X connect 1 0 2 1;
#X connect 2 0 0 0;
#X connect 3 0 19 0;
#X connect 4 0 14 0;
#X connect 5 0 4 0;
#X connect 6 0 15 0;
#X connect 7 0 16 0;
#X connect 8 0 17 0;
#X connect 9 0 18 0;
#X connect 10 0 6 0;
#X connect 11 0 7 0;
#X connect 12 0 8 0;
#X connect 13 0 9 0;
#X connect 14 0 20 0;
#X connect 15 0 21 0;
#X connect 16 0 22 0;
#X connect 17 0 23 0;
#X connect 18 0 24 0;
#X connect 19 0 0 1;
#X connect 20 0 19 1;
#X connect 21 0 20 1;
#X connect 22 0 21 1;
#X connect 23 0 22 1;
#X connect 24 0 23 1;
#X connect 25 0 1 0;
#X connect 26 0 1 0;
#X connect 27 0 28 0;
#X connect 28 0 1 0;
#X connect 29 0 3 0;
#X connect 29 0 5 0;
#X connect 29 0 10 0;
#X connect 29 0 11 0;
#X connect 29 0 12 0;
#X connect 29 0 13 0;
#X connect 30 0 33 0;
#X connect 31 0 27 0;
#X connect 31 1 26 0;
#X connect 31 2 25 0;
#X connect 31 3 29 0;
#X connect 32 0 31 0;
#X connect 34 0 29 1;
#X restore 1071 566 pd bell_synth;
#X obj 934 469 bng 19 250 50 0 empty empty empty 0 -10 0 12 #fcfcfc #000000 #000000;
#X msg 964 537 0;
#N canvas 0 25 1440 847 bell_synth 0;
#X obj 292 537 *~;
#X obj 257 365 vline~;
#X obj 276 400 *~;
#X obj 367 443 osc~;
#X obj 399 443 osc~;
#X obj 400 416 * 3;
#X obj 436 441 osc~;
#X obj 474 443 osc~;
#X obj 516 444 osc~;
#X obj 548 445 osc~;
#X obj 437 414 * 5.01;
#X obj 488 416 * 7.02;
#X obj 534 415 * 9.03;
#X obj 587 415 * 11.04;
#X obj 400 470 *~ 0.3;
#X obj 434 492 *~ 0.2;
#X obj 469 469 *~ 0.15;
#X obj 509 495 *~ 0.1;
#X obj 546 470 *~ 0.1;
#X obj 356 514 +~;
#X obj 395 513 +~;
#X obj 436 517 +~;
#X obj 469 521 +~;
#X obj 505 522 +~;
#X obj 543 523 +~;
#X msg 334 320 0 0;
#X msg 271 332 1 1;
#X obj 238 309 delay 2;
#X msg 216 333 0 1000;
#N canvas 0 25 1440 847 chord_scale 0;
#X obj 187 183 inlet;
#X obj 225 599 outlet;
#X msg 107 339 60;
#X msg 159 338 62;
#X msg 207 339 64;
#X msg 251 340 65;
#X msg 299 340 67;
#X msg 396 339 71;
#X msg 445 338 72;
#X msg 346 340 69;
#X obj 219 433 mtof;
#X obj 107 315 sel 1;
#X obj 159 314 sel 2;
#X obj 207 315 sel 3;
#X obj 251 316 sel 4;
#X obj 299 316 sel 5;
#X obj 346 316 sel 6;
#X obj 396 315 sel 7;
#X obj 445 314 sel 8;
#X obj 251 545 *;
#X msg 340 485 0.124;
#X msg 394 485 0.25;
#X msg 441 485 0.5;
#X msg 489 483 1;
#X msg 536 483 2;
#X obj 340 457 sel 1;
#X obj 394 456 sel 2;
#X obj 587 245 inlet;
#X obj 441 455 sel 1;
#X obj 489 456 sel 2;
#X obj 536 455 sel 3;
#X obj 585 454 sel 4;
#X msg 585 482 4;
#X connect 0 0 11 0;
#X connect 0 0 12 0;
#X connect 0 0 13 0;
#X connect 0 0 14 0;
#X connect 0 0 15 0;
#X connect 0 0 16 0;
#X connect 0 0 17 0;
#X connect 0 0 18 0;
#X connect 2 0 10 0;
#X connect 3 0 10 0;
#X connect 4 0 10 0;
#X connect 5 0 10 0;
#X connect 6 0 10 0;
#X connect 7 0 10 0;
#X connect 8 0 10 0;
#X connect 9 0 10 0;
#X connect 10 0 19 0;
#X connect 11 0 2 0;
#X connect 12 0 3 0;
#X connect 13 0 4 0;
#X connect 14 0 5 0;
#X connect 15 0 6 0;
#X connect 16 0 9 0;
#X connect 17 0 7 0;
#X connect 18 0 8 0;
#X connect 19 0 1 0;
#X connect 20 0 19 1;
#X connect 21 0 19 1;
#X connect 22 0 19 1;
#X connect 23 0 19 1;
#X connect 24 0 19 1;
#X connect 25 0 20 0;
#X connect 26 0 21 0;
#X connect 27 0 28 0;
#X connect 27 0 29 0;
#X connect 27 0 30 0;
#X connect 27 0 31 0;
#X connect 28 0 22 0;
#X connect 29 0 23 0;
#X connect 30 0 24 0;
#X connect 31 0 32 0;
#X restore 393 336 pd chord_scale;
#X obj 289 565 *~ 0.02;
#X obj 353 275 t b b b f;
#X obj 354 190 inlet;
#X obj 289 640 outlet~;
#X obj 551 197 inlet;
#X connect 0 0 30 0;
#X connect 1 0 2 0;
#X connect 1 0 2 1;
#X connect 2 0 0 0;
#X connect 3 0 19 0;
#X connect 4 0 14 0;
#X connect 5 0 4 0;
#X connect 6 0 15 0;
#X connect 7 0 16 0;
#X connect 8 0 17 0;
#X connect 9 0 18 0;
#X connect 10 0 6 0;
#X connect 11 0 7 0;
#X connect 12 0 8 0;
#X connect 13 0 9 0;
#X connect 14 0 20 0;
#X connect 15 0 21 0;
#X connect 16 0 22 0;
#X connect 17 0 23 0;
#X connect 18 0 24 0;
#X connect 19 0 0 1;
#X connect 20 0 19 1;
#X connect 21 0 20 1;
#X connect 22 0 21 1;
#X connect 23 0 22 1;
#X connect 24 0 23 1;
#X connect 25 0 1 0;
#X connect 26 0 1 0;
#X connect 27 0 28 0;
#X connect 28 0 1 0;
#X connect 29 0 3 0;
#X connect 29 0 5 0;
#X connect 29 0 10 0;
#X connect 29 0 11 0;
#X connect 29 0 12 0;
#X connect 29 0 13 0;
#X connect 30 0 33 0;
#X connect 31 0 27 0;
#X connect 31 1 26 0;
#X connect 31 2 25 0;
#X connect 31 3 29 0;
#X connect 32 0 31 0;
#X connect 34 0 29 1;
#X restore 1220 568 pd bell_synth;
#N canvas 0 25 1440 847 bell_synth 0;
#X obj 292 537 *~;
#X obj 257 365 vline~;
#X obj 276 400 *~;
#X obj 367 443 osc~;
#X obj 399 443 osc~;
#X obj 400 416 * 3;
#X obj 436 441 osc~;
#X obj 474 443 osc~;
#X obj 516 444 osc~;
#X obj 548 445 osc~;
#X obj 437 414 * 5.01;
#X obj 488 416 * 7.02;
#X obj 534 415 * 9.03;
#X obj 587 415 * 11.04;
#X obj 400 470 *~ 0.3;
#X obj 434 492 *~ 0.2;
#X obj 469 469 *~ 0.15;
#X obj 509 495 *~ 0.1;
#X obj 546 470 *~ 0.1;
#X obj 356 514 +~;
#X obj 395 513 +~;
#X obj 436 517 +~;
#X obj 469 521 +~;
#X obj 505 522 +~;
#X obj 543 523 +~;
#X msg 334 320 0 0;
#X msg 271 332 1 1;
#X obj 238 309 delay 2;
#X msg 216 333 0 1000;
#N canvas 0 25 1440 847 chord_scale 0;
#X obj 187 183 inlet;
#X obj 225 599 outlet;
#X msg 107 339 60;
#X msg 159 338 62;
#X msg 207 339 64;
#X msg 251 340 65;
#X msg 299 340 67;
#X msg 396 339 71;
#X msg 445 338 72;
#X msg 346 340 69;
#X obj 219 433 mtof;
#X obj 107 315 sel 1;
#X obj 159 314 sel 2;
#X obj 207 315 sel 3;
#X obj 251 316 sel 4;
#X obj 299 316 sel 5;
#X obj 346 316 sel 6;
#X obj 396 315 sel 7;
#X obj 445 314 sel 8;
#X obj 251 545 *;
#X msg 340 485 0.124;
#X msg 394 485 0.25;
#X msg 441 485 0.5;
#X msg 489 483 1;
#X msg 536 483 2;
#X obj 340 457 sel 1;
#X obj 394 456 sel 2;
#X obj 587 245 inlet;
#X obj 441 455 sel 1;
#X obj 489 456 sel 2;
#X obj 536 455 sel 3;
#X obj 585 454 sel 4;
#X msg 585 482 4;
#X connect 0 0 11 0;
#X connect 0 0 12 0;
#X connect 0 0 13 0;
#X connect 0 0 14 0;
#X connect 0 0 15 0;
#X connect 0 0 16 0;
#X connect 0 0 17 0;
#X connect 0 0 18 0;
#X connect 2 0 10 0;
#X connect 3 0 10 0;
#X connect 4 0 10 0;
#X connect 5 0 10 0;
#X connect 6 0 10 0;
#X connect 7 0 10 0;
#X connect 8 0 10 0;
#X connect 9 0 10 0;
#X connect 10 0 19 0;
#X connect 11 0 2 0;
#X connect 12 0 3 0;
#X connect 13 0 4 0;
#X connect 14 0 5 0;
#X connect 15 0 6 0;
#X connect 16 0 9 0;
#X connect 17 0 7 0;
#X connect 18 0 8 0;
#X connect 19 0 1 0;
#X connect 20 0 19 1;
#X connect 21 0 19 1;
#X connect 22 0 19 1;
#X connect 23 0 19 1;
#X connect 24 0 19 1;
#X connect 25 0 20 0;
#X connect 26 0 21 0;
#X connect 27 0 28 0;
#X connect 27 0 29 0;
#X connect 27 0 30 0;
#X connect 27 0 31 0;
#X connect 28 0 22 0;
#X connect 29 0 23 0;
#X connect 30 0 24 0;
#X connect 31 0 32 0;
#X restore 393 336 pd chord_scale;
#X obj 289 565 *~ 0.02;
#X obj 353 275 t b b b f;
#X obj 354 190 inlet;
#X obj 289 640 outlet~;
#X obj 551 197 inlet;
#X connect 0 0 30 0;
#X connect 1 0 2 0;
#X connect 1 0 2 1;
#X connect 2 0 0 0;
#X connect 3 0 19 0;
#X connect 4 0 14 0;
#X connect 5 0 4 0;
#X connect 6 0 15 0;
#X connect 7 0 16 0;
#X connect 8 0 17 0;
#X connect 9 0 18 0;
#X connect 10 0 6 0;
#X connect 11 0 7 0;
#X connect 12 0 8 0;
#X connect 13 0 9 0;
#X connect 14 0 20 0;
#X connect 15 0 21 0;
#X connect 16 0 22 0;
#X connect 17 0 23 0;
#X connect 18 0 24 0;
#X connect 19 0 0 1;
#X connect 20 0 19 1;
#X connect 21 0 20 1;
#X connect 22 0 21 1;
#X connect 23 0 22 1;
#X connect 24 0 23 1;
#X connect 25 0 1 0;
#X connect 26 0 1 0;
#X connect 27 0 28 0;
#X connect 28 0 1 0;
#X connect 29 0 3 0;
#X connect 29 0 5 0;
#X connect 29 0 10 0;
#X connect 29 0 11 0;
#X connect 29 0 12 0;
#X connect 29 0 13 0;
#X connect 30 0 33 0;
#X connect 31 0 27 0;
#X connect 31 1 26 0;
#X connect 31 2 25 0;
#X connect 31 3 29 0;
#X connect 32 0 31 0;
#X connect 34 0 29 1;
#X restore 1326 567 pd bell_synth;
#X obj 1218 202 tgl 19 1 empty empty empty 0 -10 0 12 #fcfcfc #000000 #000000 0 1;
#X obj 1218 227 s ON;
#X msg 1262 111 0;
#X obj 1251 63 bng 19 250 50 0 empty empty empty 0 -10 0 12 #fcfcfc #000000 #000000;
#X obj 1252 13 hsl 162 19 0 127 0 0 empty empty empty -2 -10 0 12 #fcfcfc #000000 #000000 0 1;
#X obj 1251 87 delay 5000;
#X floatatom 1217 134 5 0 0 0 - - - 0;
#X msg 1217 110 1;
#X obj 1217 159 change;
#X obj 322 669 delay 5000;
#X obj 795 649 delay 5000;
#X msg 226 699 0 5000;
#X msg 741 688 0 5000;
#X connect 0 0 3 0;
#X connect 1 0 7 0;
#X connect 2 0 103 0;
#X connect 3 0 4 0;
#X connect 4 0 6 0;
#X connect 4 0 7 1;
#X connect 6 0 7 0;
#X connect 7 0 8 0;
#X connect 8 0 9 0;
#X connect 10 0 11 0;
#X connect 11 0 12 0;
#X connect 12 0 14 0;
#X connect 13 0 12 0;
#X connect 14 0 17 0;
#X connect 15 0 16 0;
#X connect 16 0 17 0;
#X connect 17 0 18 0;
#X connect 17 0 19 0;
#X connect 18 0 17 1;
#X connect 19 0 20 0;
#X connect 20 0 21 0;
#X connect 21 0 22 0;
#X connect 22 0 23 0;
#X connect 23 0 24 0;
#X connect 24 0 25 0;
#X connect 26 0 27 0;
#X connect 27 0 28 0;
#X connect 28 0 24 0;
#X connect 29 0 28 0;
#X connect 31 0 34 0;
#X connect 32 0 43 0;
#X connect 33 0 37 0;
#X connect 33 0 34 1;
#X connect 34 0 35 0;
#X connect 35 0 36 0;
#X connect 38 0 41 0;
#X connect 39 0 44 0;
#X connect 40 0 41 1;
#X connect 41 0 42 0;
#X connect 42 0 45 0;
#X connect 43 0 33 0;
#X connect 44 0 40 0;
#X connect 47 0 48 0;
#X connect 48 0 49 0;
#X connect 49 0 50 0;
#X connect 49 1 51 0;
#X connect 50 0 52 0;
#X connect 51 0 53 0;
#X connect 52 0 56 0;
#X connect 53 0 56 0;
#X connect 56 0 57 0;
#X connect 57 0 58 0;
#X connect 58 0 95 0;
#X connect 59 0 60 0;
#X connect 60 0 61 0;
#X connect 61 0 62 0;
#X connect 62 0 90 0;
#X connect 63 0 64 0;
#X connect 64 0 65 0;
#X connect 65 0 66 0;
#X connect 66 0 67 1;
#X connect 67 0 130 0;
#X connect 68 0 69 0;
#X connect 69 0 128 0;
#X connect 71 0 72 0;
#X connect 71 0 80 0;
#X connect 72 0 73 0;
#X connect 73 0 74 0;
#X connect 73 0 75 0;
#X connect 74 0 76 0;
#X connect 75 0 79 0;
#X connect 76 0 88 0;
#X connect 77 0 88 0;
#X connect 78 0 96 0;
#X connect 79 0 77 0;
#X connect 80 0 85 0;
#X connect 80 0 87 0;
#X connect 81 0 82 0;
#X connect 82 0 83 0;
#X connect 83 0 85 1;
#X connect 84 0 86 0;
#X connect 85 0 131 0;
#X connect 86 0 129 0;
#X connect 87 0 91 0;
#X connect 88 0 78 0;
#X connect 89 0 93 0;
#X connect 89 1 94 0;
#X connect 90 0 58 1;
#X connect 91 0 78 1;
#X connect 92 0 89 0;
#X connect 92 1 89 0;
#X connect 93 0 70 0;
#X connect 94 0 70 1;
#X connect 95 0 89 0;
#X connect 96 0 89 0;
#X connect 97 0 98 0;
#X connect 99 1 102 0;
#X connect 100 0 99 0;
#X connect 101 0 99 0;
#X connect 103 0 1 0;
#X connect 104 0 112 0;
#X connect 105 0 112 0;
#X connect 106 0 112 0;
#X connect 107 0 112 0;
#X connect 108 0 112 0;
#X connect 109 0 112 0;
#X connect 110 0 112 0;
#X connect 111 0 112 0;
#X connect 112 0 53 0;
#X connect 112 0 76 0;
#X connect 113 0 114 0;
#X connect 113 0 122 0;
#X connect 113 1 114 1;
#X connect 113 2 117 0;
#X connect 113 3 117 1;
#X connect 113 4 118 0;
#X connect 113 5 118 1;
#X connect 114 0 92 0;
#X connect 115 0 116 0;
#X connect 116 0 114 0;
#X connect 117 0 92 0;
#X connect 118 0 92 0;
#X connect 119 0 120 0;
#X connect 121 0 125 0;
#X connect 122 0 126 0;
#X connect 122 0 124 0;
#X connect 123 0 122 0;
#X connect 124 0 121 0;
#X connect 125 0 127 0;
#X connect 126 0 125 0;
#X connect 127 0 119 0;
#X connect 128 0 130 0;
#X connect 129 0 131 0;
#X connect 130 0 90 0;
#X connect 131 0 91 0;
